<svg xmlns="http://www.w3.org/2000/svg" xmlns:xlink="http://www.w3.org/1999/xlink" viewBox="0 0 32 32"><defs><style>.cls-1{fill:url(#bbills_ornage_2);}.cls-2{fill:url(#bbills_ornage_2-2);}.cls-3{fill:url(#bbills_ornage_2-3);}.cls-4{fill:url(#bbills_green_2);}</style><linearGradient id="bbills_ornage_2" x1="12" y1="23" x2="20" y2="23" gradientUnits="userSpaceOnUse"><stop offset="0" stop-color="#f28c3f"/><stop offset="1" stop-color="#e93f3a"/></linearGradient><linearGradient id="bbills_ornage_2-2" x1="2" y1="25" x2="10" y2="25" xlink:href="#bbills_ornage_2"/><linearGradient id="bbills_ornage_2-3" x1="22" y1="21" x2="30" y2="21" xlink:href="#bbills_ornage_2"/><linearGradient id="bbills_green_2" x1="3" y1="7" x2="29" y2="7" gradientUnits="userSpaceOnUse"><stop offset="0" stop-color="#15db8c"/><stop offset="1" stop-color="#006a0f"/></linearGradient></defs><g id="Chart_Bar" data-name="Chart Bar"><path class="cls-1" d="M17,32H15a3,3,0,0,1-3-3V23a1,1,0,0,1,2,0v6a1,1,0,0,0,1,1h2a1,1,0,0,0,1-1V17a1,1,0,0,0-1-1H15a1,1,0,0,0-1,1v2a1,1,0,0,1-2,0V17a3,3,0,0,1,3-3h2a3,3,0,0,1,3,3V29A3,3,0,0,1,17,32Z"/><path class="cls-2" d="M7,32H5a3,3,0,0,1-3-3V21a3,3,0,0,1,3-3H7a3,3,0,0,1,3,3v8A3,3,0,0,1,7,32ZM5,20a1,1,0,0,0-1,1v8a1,1,0,0,0,1,1H7a1,1,0,0,0,1-1V21a1,1,0,0,0-1-1Z"/><path class="cls-3" d="M27,32H25a3,3,0,0,1-3-3V13a3,3,0,0,1,3-3h2a3,3,0,0,1,3,3V29A3,3,0,0,1,27,32ZM25,12a1,1,0,0,0-1,1V29a1,1,0,0,0,1,1h2a1,1,0,0,0,1-1V13a1,1,0,0,0-1-1Z"/><path class="cls-4" d="M26,0a3,3,0,0,0-3,3.3L18.28,5.08a3,3,0,0,0-5.27,2L8.12,8.88A3,3,0,1,0,9,10.7l4.75-1.78A3,3,0,0,0,19,7l4.89-1.83A3,3,0,1,0,26,0ZM6,12a1,1,0,1,1,1-1A1,1,0,0,1,6,12ZM16,8a1,1,0,1,1,1-1A1,1,0,0,1,16,8ZM26,4a1,1,0,1,1,1-1A1,1,0,0,1,26,4Z"/></g></svg>